<svg xmlns="http://www.w3.org/2000/svg" viewBox="0 0 64 64">
  <circle cx="32" cy="32" r="30" fill="#5d4037"/>
  <ellipse cx="32" cy="40" rx="18" ry="16" fill="#8d5524"/>
  <ellipse cx="32" cy="48" rx="10" ry="7" fill="#ffe0b2"/>
  <ellipse cx="22" cy="36" rx="4" ry="5" fill="#fff"/>
  <ellipse cx="42" cy="36" rx="4" ry="5" fill="#fff"/>
  <ellipse cx="22" cy="37" rx="1.2" ry="2" fill="#222"/>
  <ellipse cx="42" cy="37" rx="1.2" ry="2" fill="#222"/>
  <ellipse cx="32" cy="54" rx="4" ry="2" fill="#b77b4b"/>
  <ellipse cx="32" cy="54" rx="2" ry="1" fill="#fff"/>
  <ellipse cx="16" cy="50" rx="3" ry="4" fill="#ffe0b2"/>
  <ellipse cx="48" cy="50" rx="3" ry="4" fill="#ffe0b2"/>
  <ellipse cx="32" cy="45" rx="2" ry="1.2" fill="#b77b4b"/>
  <!-- Cejas enfadadas -->
  <path d="M18 32 Q22 30 26 32" stroke="#222" stroke-width="2" fill="none"/>
  <path d="M38 32 Q42 30 46 32" stroke="#222" stroke-width="2" fill="none"/>
  <!-- Boca seria -->
  <rect x="28" y="48" width="8" height="2" rx="1" fill="#222"/>
</svg>
